<svg width="40" height="40" viewBox="0 0 40 40" fill="none" xmlns="http://www.w3.org/2000/svg">
<path d="M34.5762 5.54749C33.9254 4.89661 32.87 4.89661 32.2192 5.54749L20.0619 17.7048L7.90463 5.54749C7.25376 4.89661 6.19848 4.89661 5.54761 5.54749C4.89673 6.19836 4.89673 7.25364 5.54761 7.90451L17.7049 20.0618L5.54764 32.219C4.89676 32.87 4.89676 33.9251 5.54764 34.5761C6.19851 35.227 7.25379 35.227 7.90466 34.5761L20.0619 22.4188L32.2192 34.5761C32.87 35.227 33.9254 35.227 34.5762 34.5761C35.227 33.9251 35.227 32.87 34.5762 32.2191L22.4189 20.0618L34.5762 7.90451C35.227 7.25364 35.227 6.19836 34.5762 5.54749Z" fill="#EBEBEB"/>
</svg>
