<svg width="40" height="40" viewBox="0 0 40 40" fill="none" xmlns="http://www.w3.org/2000/svg">
<path d="M33.3333 16.6668C33.3333 24.9885 24.1017 33.6552 21.0017 36.3318C20.7129 36.549 20.3613 36.6664 20 36.6664C19.6387 36.6664 19.2871 36.549 18.9983 36.3318C15.8983 33.6552 6.66667 24.9885 6.66667 16.6668C6.66667 13.1306 8.07143 9.73922 10.5719 7.23874C13.0724 4.73825 16.4638 3.3335 20 3.3335C23.5362 3.3335 26.9276 4.73825 29.4281 7.23874C31.9286 9.73922 33.3333 13.1306 33.3333 16.6668Z" stroke="white" stroke-width="2" stroke-linecap="round" stroke-linejoin="round"/>
<path d="M20 21.6665C22.7614 21.6665 25 19.4279 25 16.6665C25 13.9051 22.7614 11.6665 20 11.6665C17.2386 11.6665 15 13.9051 15 16.6665C15 19.4279 17.2386 21.6665 20 21.6665Z" stroke="white" stroke-width="2" stroke-linecap="round" stroke-linejoin="round"/>
</svg>
