<svg width="48" height="48" viewBox="0 0 48 48" fill="none" xmlns="http://www.w3.org/2000/svg">
<path d="M41.6699 13.48C41.2699 13.74 40.6999 13.98 40.4599 14.25C40.3699 14.34 40.3199 14.44 40.3399 14.54V15.57L40.0399 16.58L39.7399 17.58L39.4099 18.68L38.7299 20.93L38.0699 23.15L37.5699 24.82C37.5699 25.08 37.5599 25.34 37.5399 25.59C37.4699 26.55 37.2699 27.47 36.9499 28.33C36.7599 28.86 36.5299 29.37 36.2499 29.85C36.1499 30.04 36.0299 30.23 35.9099 30.41C35.5099 31.04 35.0299 31.62 34.4999 32.13C34.0899 32.54 33.6399 32.92 33.1499 33.24C33.1499 33.24 33.1499 33.24 33.1399 33.24C33.0599 33.31 32.9699 33.37 32.8699 33.42C32.5599 33.63 32.2299 33.81 31.8899 33.97C31.6599 34.09 31.4299 34.19 31.1899 34.28C31.1399 34.31 31.0799 34.33 31.0299 34.35C30.4599 34.62 29.7999 34.8 29.1399 34.89C29.0999 34.9 29.0699 34.9 29.0299 34.91C28.6299 34.98 28.2399 35.04 27.8399 35.07C27.6599 35.09 27.4699 35.1 27.2899 35.1L26.5799 35.06L23.1599 34.88C23.1599 34.87 23.1499 34.88 23.1499 34.88L21.4299 34.79C21.2999 34.79 21.1599 34.79 21.0299 34.78C20.4899 34.76 19.9699 34.7 19.4499 34.59C19.4399 34.59 19.4399 34.59 19.4399 34.59C18.4899 34.41 17.5799 34.09 16.7299 33.66C16.2599 33.42 15.7999 33.15 15.3699 32.84C15.1899 32.71 15.0199 32.57 14.8499 32.42C14.3699 32.02 13.9399 31.59 13.5399 31.15C13.4799 31.09 13.4299 31.03 13.3799 30.97C13.3199 30.91 13.2599 30.84 13.2099 30.78C12.8299 30.3 12.5099 29.81 12.2499 29.29C12.0099 28.83 11.8199 28.34 11.6699 27.8C11.6099 27.61 11.5599 27.43 11.5199 27.23C11.5099 27.22 11.4999 27.2 11.4999 27.18C11.3999 26.77 11.3099 26.34 11.2599 25.91C11.1999 25.58 11.1699 25.25 11.1699 24.91C11.1499 24.78 11.1499 24.64 11.1499 24.51L13.0599 21.56L14.9299 18.68L15.7799 17.37L16.5499 16.19L16.8099 15.78V14.75C16.8299 14.52 16.8399 14.28 16.8299 14.06C16.8199 13.36 16.6799 12.68 16.4499 12.03C16.2299 11.34 15.9199 10.69 15.5999 10.09C15.2199 9.4 14.8199 8.78 14.4899 8.22C13.9999 7.4 13.6599 6.73 13.7499 6.26C14.4699 6.09 15.2299 6 15.9999 6H31.9999C36.1799 6 39.7799 8.6 41.2699 12.26C41.4299 12.65 41.5699 13.06 41.6699 13.48Z" fill="#304FFE"/>
<path d="M42.0001 16V16.27L40.6201 17.07L39.7401 17.58L38.7701 18.14L36.8301 19.27L34.9301 20.37L32.9901 21.49L32.2201 21.94C32.2201 22.42 32.1001 22.86 31.8801 23.26C31.5701 23.84 31.0501 24.32 30.3901 24.73C29.7201 25.14 28.9001 25.47 27.9801 25.71C27.9801 25.71 27.9801 25.7 27.9701 25.71C24.4101 26.63 19.5501 26.21 17.1901 24.45C16.5301 23.96 16.0701 23.36 15.8701 22.67C15.8101 22.44 15.7801 22.19 15.7801 21.94V14.75C15.7901 14.6 15.6901 14.45 15.5101 14.3C14.9701 13.87 13.7001 13.46 12.2801 13.05C11.1701 12.74 9.98012 12.43 8.98012 12.13C8.19012 11.89 7.52012 11.65 7.12012 11.42C7.30012 11.07 7.51012 10.72 7.73012 10.39C9.13012 8.34 11.2701 6.83 13.7501 6.26C14.4701 6.09 15.2301 6 16.0001 6H26.8001C32.1701 6.94 37.1201 9.13 41.2701 12.26C41.4301 12.65 41.5701 13.06 41.6701 13.48C41.8501 14.14 41.9601 14.82 41.9901 15.53C42.0001 15.68 42.0001 15.84 42.0001 16Z" fill="#4928F4"/>
<path d="M41.9999 16.0001V20.4101L41.7799 21.0901L41.0299 23.4201L40.2499 25.8201L39.8399 27.1001L39.4599 28.2901L39.0899 29.4201L38.7299 30.5401L38.5399 31.1301L38.2899 31.9101C38.2899 32.6701 38.2699 33.3401 38.2199 33.9101C38.2099 33.9701 38.1999 34.0301 38.1999 34.0901C38.1399 34.6201 38.0599 35.0701 37.9299 35.4501C37.9199 35.5101 37.8999 35.5701 37.8799 35.6201C37.6199 36.3401 37.2299 36.8001 36.6499 37.1001C36.5099 37.1801 36.3499 37.2401 36.1799 37.3001C35.6499 37.4801 34.9799 37.5701 34.1599 37.6201C33.5599 37.6601 32.8699 37.6701 32.0899 37.6701H31.3999L30.2099 37.6201L29.9999 37.6101L27.8299 37.5201L25.6299 37.4301L18.3799 37.1301L16.4999 37.0501H16.2399C15.4599 37.0401 14.7899 36.9901 14.2099 36.9101C13.3699 36.7801 12.7199 36.5601 12.2299 36.2301C11.5299 35.7801 11.1199 35.1201 10.8799 34.2001C10.8199 33.9801 10.7699 33.7501 10.7399 33.5001C10.6399 32.9201 10.5899 32.2501 10.5599 31.5001C10.5599 31.3501 10.5599 31.2001 10.5499 31.0401C10.5399 31.0301 10.5499 31.0301 10.5499 31.0301V30.4501C10.5399 30.1601 10.5399 29.8601 10.5399 29.5501L10.5899 27.9401L10.6199 26.7901L10.6599 25.4501V25.2601L10.7299 22.8001L10.7999 20.3401L10.8699 18.0301L10.9299 15.7601L10.9499 15.1601C10.9499 14.8501 9.89992 14.6701 8.72992 14.5201C7.79992 14.4001 6.77992 14.2901 6.16992 14.1501C6.21992 13.9201 6.26992 13.6901 6.32992 13.4701C6.50992 12.7501 6.77992 12.0701 7.11992 11.4201C7.29992 11.0701 7.50992 10.7201 7.72992 10.3901C9.88992 9.44006 12.1399 8.70006 14.4899 8.22006C16.5499 7.79006 18.6999 7.56006 20.9199 7.56006C28.2799 7.56006 35.0799 10.0501 40.4599 14.2501C40.9799 14.6501 41.4899 15.0801 41.9899 15.5301C41.9999 15.6801 41.9999 15.8401 41.9999 16.0001Z" fill="#6200EA"/>
<path d="M42 18.37V22.91L41.45 23.97L40.4 26.02L39.84 27.1L39.33 28.09L39.11 28.52C39.11 28.83 39.11 29.13 39.09 29.42C39.09 29.85 39.07 30.26 39.04 30.64C39 31.09 38.94 31.5 38.88 31.88C38.73 32.67 38.52 33.35 38.22 33.91C38.18 33.98 38.14 34.05 38.1 34.11C37.99 34.29 37.86 34.46 37.72 34.62C37.54 34.84 37.34 35.03 37.11 35.19C36.77 35.45 36.37 35.66 35.91 35.82C35.34 36.03 34.68 36.17 33.9 36.25C33.39 36.3 32.83 36.33 32.22 36.33L31.8 36.35L29.72 36.47H29.71L27.5 36.6L25.25 36.73L22.15 36.91L18.38 37.13L17.83 37.16C17.32 37.16 16.84 37.13 16.38 37.07C16.33 37.06 16.29 37.05 16.24 37.05C15.56 36.94 14.94 36.76 14.38 36.51C13.7 36.21 13.11 35.81 12.61 35.33C12.17 34.9 11.79 34.41 11.48 33.86C11.41 33.73 11.34 33.61 11.28 33.47C10.98 32.88 10.74 32.22 10.56 31.5C10.53 31.38 10.5 31.25 10.48 31.12C10.42 30.89 10.37 30.65 10.34 30.4C10.23 29.76 10.17 29.08 10.14 28.37V28.36C10.13 28.07 10.12 27.79 10.12 27.49L9.63 26.32L9.56 26.14L9.5 25.99L8.75 24.2L8.63 23.91L7.91 22.18L7.11 20.25C7.11 20.25 7.11 20.25 7.1 20.25L6.29 18.3L6 17.59V16C6 15.37 6.06 14.75 6.17 14.15C6.22 13.92 6.27 13.69 6.33 13.47C7.18 12.98 8.07 12.53 8.98 12.13C11.06 11.2 13.29 10.51 15.6 10.09C17.32 9.77999 19.11 9.60999 20.92 9.60999C28.23 9.60999 34.86 12.26 40.04 16.58C40.24 16.74 40.43 16.9 40.62 17.07C41.09 17.48 41.55 17.91 42 18.37Z" fill="#673AB7"/>
<path d="M42 21.35V26.49L41.43 27.68L40.35 29.93L40.34 29.96C40.34 30.39 40.32 30.78 40.29 31.13C40.19 32.28 39.91 33.01 39.45 33.46C39.12 33.8 38.71 33.99 38.2 34.09C38.17 34.1 38.13 34.1 38.1 34.11C37.94 34.14 37.77 34.16 37.59 34.16C36.97 34.22 36.24 34.18 35.4 34.12C35.31 34.12 35.21 34.11 35.11 34.1C34.5 34.06 33.85 34.02 33.13 33.99C32.74 33.98 32.33 33.97 31.91 33.97H31.89L30.88 34.05H30.87L28.6 34.21L26.01 34.41L25.63 34.44L22.6 34.66L21.03 34.78L19.48 34.89C19.21 34.89 18.95 34.89 18.69 34.88C18.69 34.88 18.68 34.87 18.68 34.88C17.55 34.86 16.54 34.79 15.64 34.62C14.81 34.48 14.08 34.26 13.46 33.93C12.82 33.62 12.29 33.18 11.86 32.62C11.45 32.07 11.15 31.38 10.96 30.55C10.96 30.54 10.96 30.54 10.96 30.54C10.82 29.87 10.74 29.09 10.74 28.21L10.59 27.94L9.7 26.35L9.57 26.13L9.5 25.99L8.57 24.34L8.11 23.51L7.53 22.48L6.53 20.69L6 19.75V16.07C6.88 15.49 7.79 14.98 8.73 14.52C9.87 13.94 11.05 13.45 12.28 13.05C13.62 12.61 15.02 12.26 16.45 12.03C17.9 11.79 19.39 11.67 20.92 11.67C27.72 11.67 33.96 14.1 38.77 18.14C38.99 18.31 39.2 18.5 39.41 18.68C40.25 19.43 41.05 20.24 41.78 21.09C41.86 21.18 41.94 21.26 42 21.35Z" fill="#8E24AA"/>
<path d="M42 24.71V31.94C41.76 31.8 41.43 31.63 41.02 31.45C40.8 31.34 40.55 31.23 40.29 31.13C39.91 30.96 39.5 30.8 39.04 30.64C38.94 30.6 38.84 30.57 38.73 30.54C38.55 30.47 38.36 30.41 38.17 30.35C37.58 30.17 36.93 30 36.25 29.85C35.99 29.8 35.72 29.75 35.45 29.71C34.58 29.56 33.65 29.47 32.68 29.46C32.6 29.45 32.51 29.45 32.43 29.45L29.86 29.47L26.36 29.49H26.35L18.86 29.55C16.48 29.55 15.02 30.12 14.14 30.35C14.14 30.35 14.13 30.35 14.13 30.36C13.2 30.6 12.91 30.45 12.83 28.82C12.81 28.37 12.8 27.79 12.8 27.08L12.24 26.65L11.26 25.91L10.66 25.45L10.54 25.36L8.88 24.1L8.63 23.91L8.11 23.51L7.15 22.79L6 21.91V18.51C6.1 18.43 6.19 18.36 6.29 18.3C7.74 17.3 9.29 16.45 10.93 15.76C12.39 15.14 13.93 14.65 15.51 14.3C15.94 14.21 16.38 14.12 16.83 14.06C18.16 13.83 19.53 13.72 20.92 13.72C26.93 13.72 32.45 15.81 36.83 19.27C37.49 19.79 38.13 20.34 38.73 20.93C39.55 21.71 40.32 22.54 41.03 23.42C41.17 23.6 41.31 23.78 41.45 23.97C41.64 24.21 41.82 24.46 42 24.71Z" fill="#C2185B"/>
<path d="M42 28.72V32C42 32.65 41.94 33.29 41.82 33.91C41.64 34.83 41.33 35.71 40.91 36.53C40.69 36.58 40.44 36.58 40.16 36.54C39.53 36.43 38.79 36.1 37.99 35.67C37.95 35.66 37.91 35.64 37.88 35.62C37.63 35.49 37.37 35.35 37.11 35.19C36.58 34.9 36.02 34.58 35.46 34.28C35.34 34.22 35.22 34.16 35.11 34.1C34.47 33.77 33.81 33.47 33.15 33.24C33.15 33.24 33.15 33.24 33.14 33.24C33 33.19 32.85 33.14 32.7 33.1C32.13 32.94 31.55 32.84 30.99 32.84L29.89 32.52L25.02 31.11C25.02 31.11 25.02 31.11 25.01 31.11L22.02 30.24H22.01L20.71 29.86C16.95 29.86 14.64 31.46 13.52 30.85C13.08 30.62 12.82 30.04 12.73 28.9C12.7 28.58 12.69 28.22 12.69 27.8L11.52 27.23L11.47 27.21H11.46L10.62 26.79L9.7 26.35L9.63 26.32L9.46 26.23L7.5 25.28L6 24.55V21.12C6.17 20.97 6.35 20.83 6.53 20.69C6.72 20.54 6.91 20.4 7.1 20.25C7.11 20.25 7.11 20.25 7.11 20.25C8.29 19.4 9.54 18.65 10.87 18.03C12.42 17.29 14.07 16.72 15.78 16.35C16.03 16.29 16.29 16.23 16.55 16.19C17.97 15.92 19.43 15.78 20.92 15.78C26.19 15.78 31.03 17.49 34.93 20.37C36.06 21.21 37.11 22.14 38.07 23.15C38.86 23.98 39.59 24.88 40.25 25.82C40.3 25.89 40.35 25.96 40.4 26.02C40.77 26.56 41.11 27.11 41.43 27.68C41.64 28.02 41.82 28.37 42 28.72Z" fill="#D81B60"/>
<path d="M41.82 33.91C41.64 34.83 41.33 35.71 40.91 36.53C40.72 36.9 40.51 37.25 40.28 37.59C40.14 37.8 39.99 38 39.84 38.19C39.48 38.05 38.95 37.85 38.3 37.63C38.3 37.63 38.3 37.63 38.3 37.62C37.81 37.45 37.25 37.27 36.65 37.1C36.48 37.05 36.31 37 36.13 36.95C35.42 36.76 34.68 36.59 33.96 36.49C33.36 36.39 32.77 36.33 32.22 36.33L31.76 36.2H31.75L29.33 35.5L27.84 35.07L26.18 34.59H26.17L25.63 34.44L19.1 32.56L17.22 32.02L15.82 31.69L13.54 31.15L13.26 31.08C13.26 31.08 13.26 31.08 13.25 31.08L10.96 30.55C10.96 30.54 10.96 30.54 10.96 30.54L10.55 30.45L10.34 30.4L8.67 30.01L8.48 29.96L7.06 28.79L6 27.9V23.82C6.37 23.46 6.75 23.12 7.15 22.79C7.27 22.68 7.4 22.58 7.53 22.48C7.65 22.38 7.78 22.28 7.91 22.18C8.82 21.49 9.78 20.87 10.8 20.34C12.1 19.64 13.48 19.08 14.93 18.68C15.21 18.59 15.49 18.51 15.78 18.45C17.42 18.04 19.14 17.83 20.92 17.83C25.39 17.83 29.55 19.18 32.99 21.49C34.7 22.64 36.24 24.02 37.54 25.59C38.2 26.38 38.8 27.21 39.33 28.09C39.38 28.16 39.42 28.22 39.46 28.29C39.78 28.82 40.08 29.37 40.35 29.93C40.6 30.43 40.82 30.93 41.02 31.45C41.34 32.25 41.6 33.07 41.82 33.91Z" fill="#F50057"/>
<path d="M40.28 37.59C40.14 37.8 39.99 38 39.84 38.19C39.4 38.74 38.92 39.24 38.38 39.68C37.91 40.07 37.41 40.42 36.88 40.72C36.68 40.67 36.48 40.61 36.27 40.53C35.61 40.3 34.92 39.92 34.28 39.52C33.32 38.91 32.49 38.25 32.12 37.95C31.98 37.83 31.91 37.77 31.91 37.77L30.21 37.62L30 37.6L27.8 37.41L25.52 37.21L22.15 36.91L16.81 36.44L16.79 36.43L14.91 35.52L13.01 34.6L11.48 33.86L11.15 33.7L10.74 33.5L9.32 32.81L7.43 31.9L6.84 31.61L6 31.35V26.88C6.47 26.32 6.97 25.79 7.5 25.28C7.84 24.96 8.2 24.64 8.57 24.34C8.63 24.29 8.69 24.24 8.75 24.2C8.79 24.15 8.84 24.12 8.88 24.1C9.47 23.62 10.09 23.19 10.73 22.8C11.47 22.33 12.25 21.91 13.06 21.56C13.93 21.17 14.84 20.84 15.78 20.59C17.41 20.13 19.14 19.89 20.92 19.89C25 19.89 28.77 21.13 31.88 23.26C33.87 24.62 35.59 26.34 36.95 28.33C37.4 28.97 37.8 29.65 38.17 30.35C38.3 30.61 38.43 30.87 38.54 31.13C38.66 31.38 38.77 31.63 38.88 31.88C39.09 32.4 39.28 32.92 39.45 33.46C39.77 34.46 40.01 35.48 40.16 36.54C40.21 36.89 40.25 37.24 40.28 37.59Z" fill="#FF1744"/>
<path d="M38.39 39.4199C38.39 39.4999 38.39 39.5899 38.38 39.6799C37.91 40.0699 37.41 40.4199 36.88 40.7199C36.66 40.8399 36.44 40.9599 36.21 41.0599C35.98 41.1699 35.75 41.2699 35.51 41.3599C35.17 41.1799 34.71 40.9599 34.22 40.7499C33.53 40.4399 32.78 40.1599 32.2 40.0699C32.06 40.0399 31.93 40.0299 31.81 40.0299L30.17 39.8199H30.15L28.11 39.5499L26.05 39.2799L25.09 39.1599L17.53 38.1799C17.04 38.1799 16.52 38.1499 15.98 38.0799C15.32 38.0199 14.63 37.9199 13.94 37.7799C13.26 37.6599 12.57 37.4999 11.91 37.3299C11.22 37.1699 10.54 36.9799 9.91 36.7999C9.18 36.5799 8.5 36.3699 7.93 36.1799C7.46 36.0299 7.06 35.8899 6.75 35.7799C6.57 35.3499 6.42 34.8999 6.31 34.4399C6.1 33.6599 6 32.8399 6 31.9999V30.3299C6.32 29.7999 6.67 29.2799 7.06 28.7899C7.77 27.8499 8.58 26.9899 9.46 26.2299C9.49 26.1899 9.53 26.1599 9.56 26.1399L9.57 26.1299C9.88 25.8499 10.2 25.5999 10.54 25.3599C10.58 25.3199 10.62 25.2899 10.66 25.2599C10.82 25.1399 10.99 25.0199 11.17 24.9099C12.6 23.9399 14.18 23.1799 15.87 22.6699C17.47 22.1899 19.16 21.9399 20.92 21.9399C24.41 21.9399 27.67 22.9699 30.39 24.7299C32.4 26.0199 34.13 27.7199 35.45 29.7099C35.61 29.9399 35.76 30.1699 35.91 30.4099C36.6 31.5799 37.17 32.8399 37.59 34.1599C37.64 34.3099 37.68 34.4599 37.72 34.6199C37.8 34.8899 37.87 35.1699 37.93 35.4499C37.95 35.5199 37.97 35.5899 37.99 35.6699C38.13 36.2999 38.23 36.9599 38.3 37.6199C38.3 37.6299 38.3 37.6299 38.3 37.6299C38.36 38.2199 38.39 38.8199 38.39 39.4199Z" fill="#FF5722"/>
<path d="M36.3301 39.42C36.3301 39.77 36.3101 40.15 36.2701 40.53C36.2501 40.71 36.2301 40.89 36.2101 41.06C35.9801 41.17 35.7501 41.27 35.5101 41.36C35.0601 41.53 34.6001 41.67 34.1301 41.77C33.8101 41.84 33.4801 41.9 33.1501 41.93H33.1401C32.8301 41.74 32.4701 41.51 32.1001 41.25C31.4301 40.78 30.7301 40.25 30.1701 39.82C30.1601 39.81 30.1601 39.81 30.1501 39.8C29.5601 39.35 29.1401 39.01 29.1401 39.01L28.0801 39.05L26.0401 39.12L25.0901 39.16L21.2701 39.3L18.0401 39.42C17.8301 39.43 17.5801 39.43 17.2701 39.42H17.2601C16.8401 39.41 16.3401 39.38 15.7901 39.33C15.1501 39.28 14.4501 39.22 13.7401 39.15C13.0501 39.07 12.3501 38.99 11.6801 38.91C10.9401 38.83 10.2401 38.74 9.64006 38.66C9.17006 38.6 8.76006 38.55 8.43006 38.51C8.15006 38.19 7.90006 37.86 7.66006 37.5C7.30006 36.96 6.99006 36.39 6.75006 35.78C6.57006 35.35 6.42006 34.9 6.31006 34.44C6.60006 33.55 6.98006 32.71 7.43006 31.9C7.79006 31.24 8.21006 30.61 8.67006 30.01C9.12006 29.42 9.61006 28.87 10.1401 28.37V28.36C10.2901 28.21 10.4401 28.07 10.5901 27.94C10.8701 27.68 11.1601 27.44 11.4601 27.21H11.4701C11.4801 27.19 11.4901 27.19 11.5001 27.18C11.7401 26.99 11.9901 26.82 12.2401 26.65C13.7201 25.64 15.3901 24.89 17.1901 24.45C18.3801 24.16 19.6301 24 20.9201 24C23.4601 24 25.8601 24.61 27.9701 25.71H27.9801C29.7901 26.64 31.3901 27.92 32.6801 29.46C33.3901 30.28 34.0001 31.18 34.5001 32.13C34.8501 32.77 35.1501 33.44 35.4001 34.12C35.4201 34.18 35.4401 34.23 35.4601 34.28C35.6301 34.78 35.7801 35.3 35.9101 35.82C36.0001 36.19 36.0701 36.57 36.1301 36.95C36.1501 37.07 36.1701 37.18 36.1801 37.3C36.2801 37.99 36.3301 38.7 36.3301 39.42Z" fill="#FF6F00"/>
<path d="M34.2802 39.4201V39.5201C34.2802 39.8601 34.2502 40.2901 34.2202 40.7501C34.1902 41.0901 34.1602 41.4401 34.1302 41.7701C33.8102 41.8401 33.4802 41.9001 33.1502 41.9301H33.1402C32.7602 41.9801 32.3902 42.0001 32.0002 42.0001H30.2502L29.8702 41.8901L27.9002 41.2901L25.9002 40.6901L21.2702 39.3001L19.2702 38.7001C19.2702 38.7001 18.4402 39.0301 17.2702 39.4201H17.2602C16.8102 39.5701 16.3202 39.7301 15.8002 39.8901C15.1502 40.0801 14.4602 40.2701 13.7802 40.4201C13.0802 40.5801 12.3902 40.7001 11.7702 40.7501C11.5802 40.7701 11.3902 40.7801 11.2202 40.7801C10.6602 40.4701 10.1202 40.1001 9.63016 39.6901C9.20016 39.3301 8.80016 38.9401 8.43016 38.5101C8.15016 38.1901 7.90016 37.8601 7.66016 37.5001C7.73016 37.0501 7.81016 36.6101 7.93016 36.1801C8.23016 34.9901 8.70016 33.8501 9.32016 32.8101C9.66016 32.2201 10.0402 31.6501 10.4802 31.1201C10.4902 31.0901 10.5202 31.0601 10.5502 31.0401C10.5402 31.0301 10.5502 31.0301 10.5502 31.0301C10.6802 30.8601 10.8202 30.7001 10.9602 30.5501C10.9602 30.5401 10.9602 30.5401 10.9602 30.5401C11.3702 30.1001 11.7902 29.6801 12.2502 29.2901C12.4102 29.1601 12.5602 29.0301 12.7302 28.9001C12.7602 28.8701 12.7902 28.8501 12.8302 28.8201C15.0802 27.1001 17.8902 26.0601 20.9202 26.0601C24.3602 26.0601 27.4902 27.3501 29.8602 29.4701C31.0002 30.5001 31.9702 31.7301 32.7002 33.1001C32.7602 33.2001 32.8202 33.3101 32.8702 33.4201C32.9602 33.6001 33.0502 33.7901 33.1302 33.9901C33.4602 34.7101 33.7202 35.4701 33.9002 36.2501C33.9202 36.3301 33.9402 36.4101 33.9602 36.4901C34.0402 36.8601 34.1102 37.2401 34.1602 37.6201C34.2402 38.2101 34.2802 38.8101 34.2802 39.4201Z" fill="#FF9800"/>
<path d="M32.2199 39.42C32.2199 39.62 32.2099 39.84 32.1999 40.07C32.1799 40.44 32.1499 40.84 32.0999 41.25C32.0799 41.5 32.0399 41.75 31.9999 42H26.5199L25.4599 41.83L21.3199 41.17L20.7299 41.08L19.3799 40.86C18.7899 40.86 17.5099 41.12 16.1599 41.37C15.4499 41.5 14.7299 41.64 14.0799 41.73C13.9999 41.74 13.9199 41.75 13.8499 41.76H13.8399C13.1399 41.61 12.4599 41.38 11.8199 41.08C11.6199 40.99 11.4199 40.89 11.2199 40.78C10.6599 40.47 10.1199 40.1 9.62986 39.69C9.61986 39.57 9.60986 39.47 9.60986 39.42C9.60986 39.16 9.61986 38.91 9.63986 38.66C9.67986 38.02 9.76986 37.4 9.90986 36.8C10.1299 35.89 10.4499 35.01 10.8799 34.2C10.9599 34.03 11.0499 33.86 11.1499 33.7C11.1899 33.62 11.2399 33.55 11.2799 33.47C11.4599 33.18 11.6599 32.9 11.8599 32.62C12.2799 32.07 12.7499 31.55 13.2499 31.08C13.2599 31.08 13.2599 31.08 13.2599 31.08C13.2999 31.04 13.3399 31 13.3799 30.97C13.4299 30.93 13.4699 30.88 13.5199 30.85C13.7199 30.67 13.9199 30.51 14.1299 30.36C14.1299 30.35 14.1399 30.35 14.1399 30.35C16.0299 28.94 18.3699 28.11 20.9199 28.11C22.8999 28.11 24.7399 28.61 26.3499 29.49H26.3599C27.7399 30.25 28.9399 31.28 29.8899 32.52C30.2599 33 30.5899 33.51 30.8699 34.05H30.8799C30.9299 34.15 30.9799 34.25 31.0299 34.35C31.3299 34.94 31.5699 35.56 31.7499 36.2H31.7599C31.7699 36.25 31.7899 36.3 31.7999 36.35C31.9199 36.78 32.0199 37.22 32.0899 37.67C32.0999 37.76 32.1099 37.86 32.1199 37.95C32.1899 38.43 32.2199 38.92 32.2199 39.42Z" fill="#FFC107"/>
<path d="M30.1699 39.31C30.1699 39.47 30.1699 39.64 30.1499 39.8V39.81C30.1499 39.82 30.1499 39.82 30.1499 39.82C30.1299 40.54 30.0299 41.25 29.8699 41.89C29.8699 41.93 29.8599 41.96 29.8399 42H25.1699L21.3199 41.17L20.8099 41.06L20.7299 41.08L16.4599 41.96L16.2699 42H15.9999C15.3599 42 14.7299 41.94 14.1199 41.82C14.0299 41.8 13.9399 41.78 13.8499 41.76H13.8399C13.1399 41.61 12.4599 41.38 11.8199 41.08C11.7999 40.97 11.7799 40.86 11.7699 40.75C11.6999 40.32 11.6699 39.87 11.6699 39.42C11.6699 39.25 11.6699 39.08 11.6799 38.91C11.7099 38.37 11.7899 37.84 11.9099 37.33C11.9899 36.95 12.0999 36.58 12.2299 36.23C12.3399 35.92 12.4699 35.62 12.6099 35.33C12.7299 35.08 12.8699 34.84 13.0099 34.6C13.1499 34.37 13.2999 34.15 13.4599 33.93C13.8599 33.38 14.3299 32.87 14.8499 32.42C15.1499 32.16 15.4799 31.91 15.8199 31.69C17.2799 30.73 19.0299 30.17 20.9199 30.17C21.2899 30.17 21.6499 30.19 21.9999 30.24H22.0199C23.0899 30.36 24.0899 30.66 25.0099 31.11C25.0199 31.11 25.0199 31.11 25.0199 31.11C26.4699 31.82 27.6999 32.89 28.5999 34.21C28.7499 34.43 28.8999 34.67 29.0299 34.91C29.1399 35.1 29.2399 35.3 29.3299 35.5C29.4699 35.81 29.5999 36.14 29.7099 36.47H29.7199C29.8299 36.84 29.9299 37.21 29.9999 37.6V37.61C30.1099 38.16 30.1699 38.73 30.1699 39.31Z" fill="#FFD54F"/>
<path d="M28.1102 39.5199V39.5499C28.1102 40.1399 28.0402 40.7199 27.9002 41.2899C27.8502 41.5299 27.7802 41.7699 27.6902 41.9999H23.2102L20.9202 41.3699L18.6302 41.9999H16.0002C15.3602 41.9999 14.7302 41.9399 14.1202 41.8199C14.1002 41.7899 14.0902 41.7599 14.0802 41.7299C13.9402 41.2999 13.8302 40.8699 13.7802 40.4199C13.7402 40.1299 13.7202 39.8299 13.7202 39.5199C13.7202 39.3999 13.7202 39.2699 13.7402 39.1499C13.7502 38.6799 13.8202 38.2199 13.9402 37.7799C14.0002 37.4799 14.0902 37.1899 14.2102 36.9099C14.2502 36.7699 14.3102 36.6399 14.3802 36.5099C14.5302 36.1699 14.7102 35.8399 14.9102 35.5199C15.1302 35.1999 15.3702 34.8999 15.6402 34.6199C15.9602 34.2599 16.3202 33.9299 16.7302 33.6599C17.4302 33.1499 18.2302 32.7699 19.1002 32.5599C19.6802 32.3999 20.2902 32.3199 20.9202 32.3199C22.9202 32.3199 24.7102 33.1199 26.0102 34.4099C26.0602 34.4599 26.1202 34.5199 26.1702 34.5899H26.1802C26.3202 34.7399 26.4502 34.8899 26.5802 35.0599C26.9502 35.5299 27.2602 36.0399 27.5002 36.5999C27.6202 36.8599 27.7202 37.1299 27.8002 37.4099C27.8102 37.4499 27.8202 37.4799 27.8302 37.5199C27.9702 38.0099 28.0602 38.5199 28.0802 39.0499C28.1002 39.1999 28.1102 39.3599 28.1102 39.5199Z" fill="#FFE082"/>
<path d="M26.0598 39.52C26.0598 39.93 26.0098 40.32 25.8998 40.69C25.7998 41.09 25.6498 41.47 25.4598 41.83C25.4298 41.89 25.3598 42 25.3598 42H16.4798C16.4698 41.99 16.4598 41.97 16.4598 41.96C16.3398 41.77 16.2398 41.58 16.1598 41.37C15.9598 40.91 15.8398 40.41 15.7998 39.89C15.7798 39.77 15.7798 39.64 15.7798 39.52C15.7798 39.46 15.7798 39.39 15.7898 39.33C15.7998 38.89 15.8598 38.47 15.9798 38.08C16.0798 37.72 16.2098 37.39 16.3798 37.07C16.3798 37.07 16.3898 37.06 16.3898 37.05C16.5098 36.84 16.6398 36.63 16.7898 36.43C17.2798 35.77 17.9298 35.23 18.6798 34.88C18.6898 34.88 18.6898 34.88 18.6898 34.88C18.9298 34.76 19.1798 34.66 19.4398 34.59C19.4398 34.59 19.4398 34.59 19.4498 34.59C19.9098 34.45 20.4098 34.38 20.9198 34.38C21.5098 34.38 22.0798 34.47 22.5998 34.66C22.7898 34.71 22.9698 34.79 23.1498 34.88C23.1498 34.88 23.1498 34.88 23.1598 34.88C24.0198 35.29 24.7498 35.93 25.2498 36.73C25.3498 36.88 25.4398 37.04 25.5198 37.21C25.5598 37.28 25.5998 37.36 25.6298 37.43C25.8598 37.95 25.9998 38.52 26.0398 39.12C26.0498 39.17 26.0498 39.22 26.0498 39.28C26.0598 39.36 26.0598 39.44 26.0598 39.52Z" fill="#FFECB3"/>
<path d="M30 11H18C14.1 11 11 14.1 11 18V30C11 33.9 14.1 37 18 37H30C33.9 37 37 33.9 37 30V18C37 14.1 33.9 11 30 11Z" stroke="white" stroke-width="2" stroke-miterlimit="10" stroke-linecap="round" stroke-linejoin="round"/>
<path d="M31 17C31.5523 17 32 16.5523 32 16C32 15.4477 31.5523 15 31 15C30.4477 15 30 15.4477 30 16C30 16.5523 30.4477 17 31 17Z" fill="white"/>
<path d="M24 30C27.3137 30 30 27.3137 30 24C30 20.6863 27.3137 18 24 18C20.6863 18 18 20.6863 18 24C18 27.3137 20.6863 30 24 30Z" stroke="white" stroke-width="2" stroke-miterlimit="10" stroke-linecap="round" stroke-linejoin="round"/>
</svg>
